<?xml version="1.0" encoding="utf-8" ?>
<svg baseProfile="full" height="1080px" version="1.1" viewBox="0 0 1920 1080" width="1920px" xmlns="http://www.w3.org/2000/svg" xmlns:ev="http://www.w3.org/2001/xml-events" xmlns:xlink="http://www.w3.org/1999/xlink"><defs><linearGradient id="adGradient" x1="0" x2="1920" y1="0" y2="1080"><stop offset="0.0%" stop-color="#667eea" /><stop offset="100.0%" stop-color="#764ba2" /></linearGradient></defs><rect fill="url(#adGradient)" height="1080" width="1920" x="0" y="0" /><polygon fill="#f0f0f0" opacity="0.1" points="228,-68.5 347.5,170.5 108.5,170.5" /><circle cx="457" cy="285" fill="#ffffff" opacity="0.1" r="119.0" /><polygon fill="#f0f0f0" opacity="0.1" points="1516,77.5 1616.5,278.5 1415.5,278.5" /><circle cx="61" cy="191" fill="#ffffff" opacity="0.1" r="52.5" /><polygon fill="#ffffff" opacity="0.1" points="1232,-42.5 1328.5,150.5 1135.5,150.5" /><polygon fill="#f0f0f0" opacity="0.1" points="1330,806.0 1383.0,912.0 1277.0,912.0" /><polygon fill="#ffffff" opacity="0.1" points="569,-109.0 691.0,135.0 447.0,135.0" /><polygon fill="#ffffff" opacity="0.1" points="865,635.5 925.5,756.5 804.5,756.5" /><circle cx="1563" cy="689" fill="#ffffff" opacity="0.1" r="38.0" /><rect fill="#f0f0f0" height="266" opacity="0.1" rx="26.6" width="266" x="65.0" y="602.0" /></svg>