<?xml version="1.0" encoding="utf-8" ?>
<svg baseProfile="full" height="1080px" version="1.1" viewBox="0 0 1920 1080" width="1920px" xmlns="http://www.w3.org/2000/svg" xmlns:ev="http://www.w3.org/2001/xml-events" xmlns:xlink="http://www.w3.org/1999/xlink"><defs><linearGradient id="bgGradient" x1="0" x2="0" y1="0" y2="1080"><stop offset="0.0%" stop-color="#fefefe" /><stop offset="100.0%" stop-color="#f5f9fa" /></linearGradient></defs><rect fill="url(#bgGradient)" height="1080" width="1920" x="0" y="0" /><circle cx="-60" cy="-60" fill="#1a5f7a" opacity="0.05" r="24.0" /><circle cx="-60" cy="60" fill="#1a5f7a" opacity="0.05" r="24.0" /><circle cx="-60" cy="180" fill="#1a5f7a" opacity="0.05" r="24.0" /><circle cx="-60" cy="300" fill="#1a5f7a" opacity="0.05" r="24.0" /><circle cx="-60" cy="420" fill="#1a5f7a" opacity="0.05" r="24.0" /><circle cx="-60" cy="540" fill="#1a5f7a" opacity="0.05" r="24.0" /><circle cx="-60" cy="660" fill="#1a5f7a" opacity="0.05" r="24.0" /><circle cx="-60" cy="780" fill="#1a5f7a" opacity="0.05" r="24.0" /><circle cx="-60" cy="900" fill="#1a5f7a" opacity="0.05" r="24.0" /><circle cx="-60" cy="1020" fill="#1a5f7a" opacity="0.05" r="24.0" /><circle cx="60" cy="-60" fill="#1a5f7a" opacity="0.05" r="24.0" /><circle cx="60" cy="60" fill="#1a5f7a" opacity="0.05" r="24.0" /><circle cx="60" cy="180" fill="#1a5f7a" opacity="0.05" r="24.0" /><circle cx="60" cy="300" fill="#1a5f7a" opacity="0.05" r="24.0" /><circle cx="60" cy="420" fill="#1a5f7a" opacity="0.05" r="24.0" /><circle cx="60" cy="540" fill="#1a5f7a" opacity="0.05" r="24.0" /><circle cx="60" cy="660" fill="#1a5f7a" opacity="0.05" r="24.0" /><circle cx="60" cy="780" fill="#1a5f7a" opacity="0.05" r="24.0" /><circle cx="60" cy="900" fill="#1a5f7a" opacity="0.05" r="24.0" /><circle cx="60" cy="1020" fill="#1a5f7a" opacity="0.05" r="24.0" /><circle cx="180" cy="-60" fill="#1a5f7a" opacity="0.05" r="24.0" /><circle cx="180" cy="60" fill="#1a5f7a" opacity="0.05" r="24.0" /><circle cx="180" cy="180" fill="#1a5f7a" opacity="0.05" r="24.0" /><circle cx="180" cy="300" fill="#1a5f7a" opacity="0.05" r="24.0" /><circle cx="180" cy="420" fill="#1a5f7a" opacity="0.05" r="24.0" /><circle cx="180" cy="540" fill="#1a5f7a" opacity="0.05" r="24.0" /><circle cx="180" cy="660" fill="#1a5f7a" opacity="0.05" r="24.0" /><circle cx="180" cy="780" fill="#1a5f7a" opacity="0.05" r="24.0" /><circle cx="180" cy="900" fill="#1a5f7a" opacity="0.05" r="24.0" /><circle cx="180" cy="1020" fill="#1a5f7a" opacity="0.05" r="24.0" /><circle cx="300" cy="-60" fill="#1a5f7a" opacity="0.05" r="24.0" /><circle cx="300" cy="60" fill="#1a5f7a" opacity="0.05" r="24.0" /><circle cx="300" cy="180" fill="#1a5f7a" opacity="0.05" r="24.0" /><circle cx="300" cy="300" fill="#1a5f7a" opacity="0.05" r="24.0" /><circle cx="300" cy="420" fill="#1a5f7a" opacity="0.05" r="24.0" /><circle cx="300" cy="540" fill="#1a5f7a" opacity="0.05" r="24.0" /><circle cx="300" cy="660" fill="#1a5f7a" opacity="0.05" r="24.0" /><circle cx="300" cy="780" fill="#1a5f7a" opacity="0.05" r="24.0" /><circle cx="300" cy="900" fill="#1a5f7a" opacity="0.05" r="24.0" /><circle cx="300" cy="1020" fill="#1a5f7a" opacity="0.05" r="24.0" /><circle cx="420" cy="-60" fill="#1a5f7a" opacity="0.05" r="24.0" /><circle cx="420" cy="60" fill="#1a5f7a" opacity="0.05" r="24.0" /><circle cx="420" cy="180" fill="#1a5f7a" opacity="0.05" r="24.0" /><circle cx="420" cy="300" fill="#1a5f7a" opacity="0.05" r="24.0" /><circle cx="420" cy="420" fill="#1a5f7a" opacity="0.05" r="24.0" /><circle cx="420" cy="540" fill="#1a5f7a" opacity="0.05" r="24.0" /><circle cx="420" cy="660" fill="#1a5f7a" opacity="0.05" r="24.0" /><circle cx="420" cy="780" fill="#1a5f7a" opacity="0.05" r="24.0" /><circle cx="420" cy="900" fill="#1a5f7a" opacity="0.05" r="24.0" /><circle cx="420" cy="1020" fill="#1a5f7a" opacity="0.05" r="24.0" /><circle cx="540" cy="-60" fill="#1a5f7a" opacity="0.05" r="24.0" /><circle cx="540" cy="60" fill="#1a5f7a" opacity="0.05" r="24.0" /><circle cx="540" cy="180" fill="#1a5f7a" opacity="0.05" r="24.0" /><circle cx="540" cy="300" fill="#1a5f7a" opacity="0.05" r="24.0" /><circle cx="540" cy="420" fill="#1a5f7a" opacity="0.05" r="24.0" /><circle cx="540" cy="540" fill="#1a5f7a" opacity="0.05" r="24.0" /><circle cx="540" cy="660" fill="#1a5f7a" opacity="0.05" r="24.0" /><circle cx="540" cy="780" fill="#1a5f7a" opacity="0.05" r="24.0" /><circle cx="540" cy="900" fill="#1a5f7a" opacity="0.05" r="24.0" /><circle cx="540" cy="1020" fill="#1a5f7a" opacity="0.05" r="24.0" /><circle cx="660" cy="-60" fill="#1a5f7a" opacity="0.05" r="24.0" /><circle cx="660" cy="60" fill="#1a5f7a" opacity="0.05" r="24.0" /><circle cx="660" cy="180" fill="#1a5f7a" opacity="0.05" r="24.0" /><circle cx="660" cy="300" fill="#1a5f7a" opacity="0.05" r="24.0" /><circle cx="660" cy="420" fill="#1a5f7a" opacity="0.05" r="24.0" /><circle cx="660" cy="540" fill="#1a5f7a" opacity="0.05" r="24.0" /><circle cx="660" cy="660" fill="#1a5f7a" opacity="0.05" r="24.0" /><circle cx="660" cy="780" fill="#1a5f7a" opacity="0.05" r="24.0" /><circle cx="660" cy="900" fill="#1a5f7a" opacity="0.05" r="24.0" /><circle cx="660" cy="1020" fill="#1a5f7a" opacity="0.05" r="24.0" /><circle cx="780" cy="-60" fill="#1a5f7a" opacity="0.05" r="24.0" /><circle cx="780" cy="60" fill="#1a5f7a" opacity="0.05" r="24.0" /><circle cx="780" cy="180" fill="#1a5f7a" opacity="0.05" r="24.0" /><circle cx="780" cy="300" fill="#1a5f7a" opacity="0.05" r="24.0" /><circle cx="780" cy="420" fill="#1a5f7a" opacity="0.05" r="24.0" /><circle cx="780" cy="540" fill="#1a5f7a" opacity="0.05" r="24.0" /><circle cx="780" cy="660" fill="#1a5f7a" opacity="0.05" r="24.0" /><circle cx="780" cy="780" fill="#1a5f7a" opacity="0.05" r="24.0" /><circle cx="780" cy="900" fill="#1a5f7a" opacity="0.05" r="24.0" /><circle cx="780" cy="1020" fill="#1a5f7a" opacity="0.05" r="24.0" /><circle cx="900" cy="-60" fill="#1a5f7a" opacity="0.05" r="24.0" /><circle cx="900" cy="60" fill="#1a5f7a" opacity="0.05" r="24.0" /><circle cx="900" cy="180" fill="#1a5f7a" opacity="0.05" r="24.0" /><circle cx="900" cy="300" fill="#1a5f7a" opacity="0.05" r="24.0" /><circle cx="900" cy="420" fill="#1a5f7a" opacity="0.05" r="24.0" /><circle cx="900" cy="540" fill="#1a5f7a" opacity="0.05" r="24.0" /><circle cx="900" cy="660" fill="#1a5f7a" opacity="0.05" r="24.0" /><circle cx="900" cy="780" fill="#1a5f7a" opacity="0.05" r="24.0" /><circle cx="900" cy="900" fill="#1a5f7a" opacity="0.05" r="24.0" /><circle cx="900" cy="1020" fill="#1a5f7a" opacity="0.05" r="24.0" /><circle cx="1020" cy="-60" fill="#1a5f7a" opacity="0.05" r="24.0" /><circle cx="1020" cy="60" fill="#1a5f7a" opacity="0.05" r="24.0" /><circle cx="1020" cy="180" fill="#1a5f7a" opacity="0.05" r="24.0" /><circle cx="1020" cy="300" fill="#1a5f7a" opacity="0.05" r="24.0" /><circle cx="1020" cy="420" fill="#1a5f7a" opacity="0.05" r="24.0" /><circle cx="1020" cy="540" fill="#1a5f7a" opacity="0.05" r="24.0" /><circle cx="1020" cy="660" fill="#1a5f7a" opacity="0.05" r="24.0" /><circle cx="1020" cy="780" fill="#1a5f7a" opacity="0.05" r="24.0" /><circle cx="1020" cy="900" fill="#1a5f7a" opacity="0.05" r="24.0" /><circle cx="1020" cy="1020" fill="#1a5f7a" opacity="0.05" r="24.0" /><circle cx="1140" cy="-60" fill="#1a5f7a" opacity="0.05" r="24.0" /><circle cx="1140" cy="60" fill="#1a5f7a" opacity="0.05" r="24.0" /><circle cx="1140" cy="180" fill="#1a5f7a" opacity="0.05" r="24.0" /><circle cx="1140" cy="300" fill="#1a5f7a" opacity="0.05" r="24.0" /><circle cx="1140" cy="420" fill="#1a5f7a" opacity="0.05" r="24.0" /><circle cx="1140" cy="540" fill="#1a5f7a" opacity="0.05" r="24.0" /><circle cx="1140" cy="660" fill="#1a5f7a" opacity="0.05" r="24.0" /><circle cx="1140" cy="780" fill="#1a5f7a" opacity="0.05" r="24.0" /><circle cx="1140" cy="900" fill="#1a5f7a" opacity="0.05" r="24.0" /><circle cx="1140" cy="1020" fill="#1a5f7a" opacity="0.05" r="24.0" /><circle cx="1260" cy="-60" fill="#1a5f7a" opacity="0.05" r="24.0" /><circle cx="1260" cy="60" fill="#1a5f7a" opacity="0.05" r="24.0" /><circle cx="1260" cy="180" fill="#1a5f7a" opacity="0.05" r="24.0" /><circle cx="1260" cy="300" fill="#1a5f7a" opacity="0.05" r="24.0" /><circle cx="1260" cy="420" fill="#1a5f7a" opacity="0.05" r="24.0" /><circle cx="1260" cy="540" fill="#1a5f7a" opacity="0.05" r="24.0" /><circle cx="1260" cy="660" fill="#1a5f7a" opacity="0.05" r="24.0" /><circle cx="1260" cy="780" fill="#1a5f7a" opacity="0.05" r="24.0" /><circle cx="1260" cy="900" fill="#1a5f7a" opacity="0.05" r="24.0" /><circle cx="1260" cy="1020" fill="#1a5f7a" opacity="0.05" r="24.0" /><circle cx="1380" cy="-60" fill="#1a5f7a" opacity="0.05" r="24.0" /><circle cx="1380" cy="60" fill="#1a5f7a" opacity="0.05" r="24.0" /><circle cx="1380" cy="180" fill="#1a5f7a" opacity="0.05" r="24.0" /><circle cx="1380" cy="300" fill="#1a5f7a" opacity="0.05" r="24.0" /><circle cx="1380" cy="420" fill="#1a5f7a" opacity="0.05" r="24.0" /><circle cx="1380" cy="540" fill="#1a5f7a" opacity="0.05" r="24.0" /><circle cx="1380" cy="660" fill="#1a5f7a" opacity="0.05" r="24.0" /><circle cx="1380" cy="780" fill="#1a5f7a" opacity="0.05" r="24.0" /><circle cx="1380" cy="900" fill="#1a5f7a" opacity="0.05" r="24.0" /><circle cx="1380" cy="1020" fill="#1a5f7a" opacity="0.05" r="24.0" /><circle cx="1500" cy="-60" fill="#1a5f7a" opacity="0.05" r="24.0" /><circle cx="1500" cy="60" fill="#1a5f7a" opacity="0.05" r="24.0" /><circle cx="1500" cy="180" fill="#1a5f7a" opacity="0.05" r="24.0" /><circle cx="1500" cy="300" fill="#1a5f7a" opacity="0.05" r="24.0" /><circle cx="1500" cy="420" fill="#1a5f7a" opacity="0.05" r="24.0" /><circle cx="1500" cy="540" fill="#1a5f7a" opacity="0.05" r="24.0" /><circle cx="1500" cy="660" fill="#1a5f7a" opacity="0.05" r="24.0" /><circle cx="1500" cy="780" fill="#1a5f7a" opacity="0.05" r="24.0" /><circle cx="1500" cy="900" fill="#1a5f7a" opacity="0.05" r="24.0" /><circle cx="1500" cy="1020" fill="#1a5f7a" opacity="0.05" r="24.0" /><circle cx="1620" cy="-60" fill="#1a5f7a" opacity="0.05" r="24.0" /><circle cx="1620" cy="60" fill="#1a5f7a" opacity="0.05" r="24.0" /><circle cx="1620" cy="180" fill="#1a5f7a" opacity="0.05" r="24.0" /><circle cx="1620" cy="300" fill="#1a5f7a" opacity="0.05" r="24.0" /><circle cx="1620" cy="420" fill="#1a5f7a" opacity="0.05" r="24.0" /><circle cx="1620" cy="540" fill="#1a5f7a" opacity="0.05" r="24.0" /><circle cx="1620" cy="660" fill="#1a5f7a" opacity="0.05" r="24.0" /><circle cx="1620" cy="780" fill="#1a5f7a" opacity="0.05" r="24.0" /><circle cx="1620" cy="900" fill="#1a5f7a" opacity="0.05" r="24.0" /><circle cx="1620" cy="1020" fill="#1a5f7a" opacity="0.05" r="24.0" /><circle cx="1740" cy="-60" fill="#1a5f7a" opacity="0.05" r="24.0" /><circle cx="1740" cy="60" fill="#1a5f7a" opacity="0.05" r="24.0" /><circle cx="1740" cy="180" fill="#1a5f7a" opacity="0.05" r="24.0" /><circle cx="1740" cy="300" fill="#1a5f7a" opacity="0.05" r="24.0" /><circle cx="1740" cy="420" fill="#1a5f7a" opacity="0.05" r="24.0" /><circle cx="1740" cy="540" fill="#1a5f7a" opacity="0.05" r="24.0" /><circle cx="1740" cy="660" fill="#1a5f7a" opacity="0.05" r="24.0" /><circle cx="1740" cy="780" fill="#1a5f7a" opacity="0.05" r="24.0" /><circle cx="1740" cy="900" fill="#1a5f7a" opacity="0.05" r="24.0" /><circle cx="1740" cy="1020" fill="#1a5f7a" opacity="0.05" r="24.0" /><circle cx="1860" cy="-60" fill="#1a5f7a" opacity="0.05" r="24.0" /><circle cx="1860" cy="60" fill="#1a5f7a" opacity="0.05" r="24.0" /><circle cx="1860" cy="180" fill="#1a5f7a" opacity="0.05" r="24.0" /><circle cx="1860" cy="300" fill="#1a5f7a" opacity="0.05" r="24.0" /><circle cx="1860" cy="420" fill="#1a5f7a" opacity="0.05" r="24.0" /><circle cx="1860" cy="540" fill="#1a5f7a" opacity="0.05" r="24.0" /><circle cx="1860" cy="660" fill="#1a5f7a" opacity="0.05" r="24.0" /><circle cx="1860" cy="780" fill="#1a5f7a" opacity="0.05" r="24.0" /><circle cx="1860" cy="900" fill="#1a5f7a" opacity="0.05" r="24.0" /><circle cx="1860" cy="1020" fill="#1a5f7a" opacity="0.05" r="24.0" /><rect fill="none" height="1072.0" stroke="#1a5f7a" stroke-width="8.0" width="1912.0" x="4.0" y="4.0" /><rect fill="none" height="1020.8" opacity="0.6" stroke="#1a5f7a" stroke-width="3.2" width="1860.8" x="29.6" y="29.6" /><path d="M 80.0 0 L 0 0 L 0 80.0" fill="none" stroke="#1a5f7a" stroke-linecap="round" stroke-width="3.0" /><path d="M 80.0 0 L 0 0 L 0 80.0" fill="none" stroke="#1a5f7a" stroke-linecap="round" stroke-width="1.0" transform="translate(12.0, 12.0)" /><path d="M 1840.0 0 L 1920 0 L 1920 80.0" fill="none" stroke="#1a5f7a" stroke-linecap="round" stroke-width="3.0" /><path d="M 1840.0 0 L 1920 0 L 1920 80.0" fill="none" stroke="#1a5f7a" stroke-linecap="round" stroke-width="1.0" transform="translate(12.0, 12.0)" /><path d="M 0 1000.0 L 0 1080 L 80.0 1080" fill="none" stroke="#1a5f7a" stroke-linecap="round" stroke-width="3.0" /><path d="M 0 1000.0 L 0 1080 L 80.0 1080" fill="none" stroke="#1a5f7a" stroke-linecap="round" stroke-width="1.0" transform="translate(12.0, -12.0)" /><path d="M 1920 1000.0 L 1920 1080 L 1840.0 1080" fill="none" stroke="#1a5f7a" stroke-linecap="round" stroke-width="3.0" /><path d="M 1920 1000.0 L 1920 1080 L 1840.0 1080" fill="none" stroke="#1a5f7a" stroke-linecap="round" stroke-width="1.0" transform="translate(12.0, -12.0)" /></svg>